<?xml version="1.0" standalone="no"?>
<!DOCTYPE svg PUBLIC "-//W3C//DTD SVG 20010904//EN"
 "http://www.w3.org/TR/2001/REC-SVG-20010904/DTD/svg10.dtd">
<svg version="1.0" xmlns="http://www.w3.org/2000/svg"
 width="932.000000pt" height="932.000000pt" viewBox="0 0 932.000000 932.000000"
 preserveAspectRatio="xMidYMid meet">
<metadata>
Created by potrace 1.14, written by Peter Selinger 2001-2017
</metadata>
<g transform="translate(0.000000,932.000000) scale(0.100000,-0.100000)"
fill="#000000" stroke="none">
<path d="M728 8205 c-2 -3 -29 -7 -59 -9 -42 -4 -177 -35 -254 -59 -32 -10
-134 -63 -154 -81 -31 -27 -112 -108 -128 -128 -29 -38 -110 -228 -97 -228 2
0 -1 -12 -7 -26 -5 -15 -13 -54 -17 -88 -9 -77 -9 -3305 0 -3366 19 -131 76
-307 136 -420 43 -81 84 -153 92 -160 3 -3 23 -32 45 -64 44 -65 194 -223 265
-278 138 -108 278 -178 425 -214 17 -4 37 -9 45 -11 8 -3 836 -6 1840 -9 1004
-2 1831 -4 1838 -5 20 -3 48 -49 55 -89 12 -71 18 -97 43 -190 30 -111 85
-261 125 -342 15 -32 25 -58 22 -58 -3 0 0 -8 8 -17 8 -10 28 -43 44 -73 16
-30 36 -66 45 -80 9 -14 30 -45 46 -70 83 -128 177 -242 315 -380 52 -53 113
-109 134 -126 21 -16 49 -38 62 -50 27 -25 217 -154 227 -154 4 0 26 -12 49
-28 35 -23 109 -62 127 -67 3 -1 31 -13 63 -28 62 -28 277 -103 318 -110 13
-3 44 -10 69 -17 25 -7 54 -14 65 -15 11 -2 30 -6 41 -8 26 -6 87 -17 134 -23
19 -2 53 -7 75 -11 53 -9 457 -9 520 0 28 4 64 9 80 11 103 15 210 40 350 84
28 8 51 14 53 13 1 -1 16 6 32 14 17 9 30 13 30 10 0 -4 17 3 38 13 20 11 62
30 92 42 67 27 259 127 281 146 8 8 18 14 22 14 9 0 131 84 135 93 2 4 10 7
18 7 8 0 14 4 14 8 0 5 21 24 47 43 47 33 256 236 301 291 149 185 264 380
361 610 23 53 41 103 41 111 0 7 3 17 7 21 4 3 8 12 10 19 1 7 14 50 28 97 15
47 28 93 30 103 2 10 6 26 9 35 7 22 35 183 44 252 17 130 4 562 -18 620 -1 3
-2 9 -1 13 1 5 -3 25 -8 45 -5 20 -12 51 -15 67 -62 340 -246 730 -476 1005
-89 107 -256 265 -365 347 -27 20 -51 41 -53 45 -2 4 -9 8 -15 8 -7 0 -28 14
-47 30 -19 16 -38 30 -42 30 -4 0 -27 14 -51 30 -25 17 -49 30 -55 30 -6 0
-12 4 -14 8 -5 13 -172 94 -278 137 -181 71 -384 122 -560 141 -30 3 -66 7
-80 10 -31 5 -342 5 -390 -1 -19 -2 -62 -6 -95 -9 -33 -3 -71 -8 -85 -11 -14
-2 -41 -7 -60 -9 -94 -15 -339 -79 -395 -105 -11 -5 -45 -19 -75 -31 -84 -34
-265 -123 -268 -132 -2 -4 -8 -8 -13 -8 -5 0 -38 -17 -72 -39 -94 -59 -202
-120 -230 -130 l-25 -10 15 47 c8 26 19 61 23 77 5 17 16 54 24 83 9 28 22 73
30 100 57 193 78 260 86 277 29 65 53 176 53 255 1 121 -26 191 -107 274 -41
43 -172 141 -255 191 -9 5 -48 31 -88 57 -39 27 -76 48 -82 48 -6 0 -11 3 -11
8 0 4 -20 18 -45 32 -25 14 -45 28 -45 32 0 5 -6 8 -12 8 -11 0 -66 33 -164
98 -10 6 -26 15 -34 19 -8 4 -31 16 -50 28 -43 27 -113 66 -200 113 -36 19
-72 40 -80 47 -18 14 -52 29 -62 27 -5 -1 -8 2 -8 6 0 5 -28 22 -62 38 -35 16
-65 32 -68 35 -5 6 -497 249 -504 249 -2 0 -44 18 -93 41 -116 54 -264 118
-388 168 -11 5 -33 14 -50 22 -16 7 -32 13 -35 14 -3 1 -14 5 -25 10 -131 52
-252 97 -262 98 -7 0 -13 4 -13 9 0 4 -3 7 -7 6 -6 -2 -405 125 -503 160 -21
7 -28 9 -90 26 -30 8 -134 35 -230 61 -96 26 -182 48 -190 49 -8 1 -31 6 -50
10 -19 4 -42 8 -50 10 -8 2 -22 6 -30 9 -17 7 -155 35 -210 42 -19 3 -44 7
-56 10 -12 2 -39 7 -60 10 -21 4 -50 8 -64 10 -14 3 -50 7 -80 11 -30 3 -71 7
-90 10 -19 2 -62 7 -95 9 -33 3 -82 7 -110 11 -62 7 -361 14 -367 9z m6272
-3429 c36 -3 76 -8 90 -11 14 -3 41 -8 60 -11 110 -17 331 -116 440 -196 52
-39 204 -186 225 -219 6 -9 28 -42 50 -75 35 -52 54 -86 107 -196 19 -40 61
-176 74 -243 20 -96 26 -330 12 -430 -28 -194 -124 -409 -254 -571 -92 -116
-262 -254 -369 -303 -11 -5 -45 -20 -75 -34 -139 -64 -323 -101 -500 -101
-258 0 -465 65 -670 209 -70 49 -240 206 -240 221 0 3 -12 21 -27 39 -16 17
-34 40 -40 51 -61 94 -66 103 -112 206 -27 61 -26 84 2 103 20 13 101 15 584
14 593 -1 602 0 696 47 74 38 141 112 167 184 17 49 22 164 9 230 -29 147
-148 256 -311 286 -24 4 -287 8 -584 9 -628 1 -588 -6 -554 91 11 32 23 60 27
63 5 3 16 22 27 41 29 54 89 144 106 157 8 7 12 13 8 13 -12 0 163 174 207
205 22 16 42 32 45 35 3 4 43 27 90 53 84 45 232 100 300 111 19 3 46 8 60 11
14 3 59 8 100 11 41 3 76 7 78 8 3 3 59 0 172 -8z"/>
</g>
</svg>
