<svg xmlns="http://www.w3.org/2000/svg" viewBox="0 0 466.38 355.1"><defs><style>.cls-1{fill:#e6e600;}</style></defs><title>Middel 2</title><g id="Laag_2" data-name="Laag 2"><g id="Laag_1-2" data-name="Laag 1"><path class="cls-1" d="M56.52,257.3C28.15,256.92,0,223,0,191.46c0-64,0-85.3,0-149.29C0,10.3,14.52,1.55,41.15,0,45.27-.2,58.34.94,62.4,1.47c8.46,1.11,12.12.6,35.9,6.08,42.64,9.83,82.8,26.07,121.47,46.21A564.11,564.11,0,0,1,277.9,88.83c10.1,6.91,12.36,15.11,8.29,27.42-3.54,10.71-6.58,21.59-9.85,32.4,7.35-3.41,13.62-8,20.53-11.62a115.38,115.38,0,0,1,44.83-12.69c30.59-2.43,58.11,5.85,82,25a110.31,110.31,0,0,1,37.91,57.35c6.49,22.95,6.59,45.81-.79,68.33-11.14,34-33.12,58.53-66.65,71.86-26.21,10.42-53.06,10.7-79.8,2.45-21.35-6.58-39-19.15-53.09-36.52a109.68,109.68,0,0,1-23.51-51.14c-.5-2.88-2-4.47-5.08-4.27-1.49.1-3,0-4.5,0m90.49-8.29c-9,0-18,.09-27,0-4-.06-4.69,1.78-3.28,5a64.41,64.41,0,0,0,4.45,8.93c16,24.76,42.76,33.71,69.69,25.37,28.32-8.78,45.51-37.48,40.47-67-4.92-28.88-27.46-49.72-58.47-50-24.52-.21-42.91,11.28-54.41,33.2-3,5.7-2.42,6.64,3.88,6.66q22.49.06,45,0a36.23,36.23,0,0,1,8.92.89c10.38,2.59,15.37,10.29,14.16,22-.86,8.28-9,15-18.42,15.05C335.31,249.1,327,249.05,318.65,249.07Z"/></g></g></svg>