<svg xmlns="http://www.w3.org/2000/svg" viewBox="0 0 1825.43 356.65"><defs><style>.cls-1{fill:#e6e600;}</style></defs><title>Middel 1</title><g id="Laag_2" data-name="Laag 2"><g id="Laag_1-2" data-name="Laag 1"><path class="cls-1" d="M1294.22,150.2c7.35-3.41,13.62-8,20.53-11.62a115.38,115.38,0,0,1,44.83-12.69c30.59-2.43,58.11,5.85,82,25a110.31,110.31,0,0,1,37.91,57.35c6.49,22.95,6.59,45.81-.79,68.33-11.14,34-33.12,58.53-66.65,71.86-26.21,10.42-53.06,10.7-79.8,2.45-21.35-6.58-39-19.15-53.09-36.52a109.68,109.68,0,0,1-23.51-51.14c-.5-2.88-2-4.47-5.08-4.27-1.49.1-3,0-4.5,0h-464a33.23,33.23,0,0,1-3.5,0c-4.42-.47-5.76,1.6-5.74,5.84.12,26.5.07,53,.05,79.49,0,7.4-.23,7.63-7.54,7.64q-20.75,0-41.5,0c-6.41,0-6.87-.46-6.88-6.79q0-39.5,0-79c0-7.13,0-7.17-7.32-7.17-18.17,0-36.33.12-54.49-.09-4.66-.05-7.09,1-8.23,6.08-5.13,23-15.9,43-33,59.38a109.65,109.65,0,0,1-64.84,30.48c-43.84,5.07-80.21-9.75-107.22-44.63C421.68,284,415.36,253.68,420.37,221a111.94,111.94,0,0,1,22.81-52.57A109.07,109.07,0,0,1,492,132.5c28.92-10.75,57.83-10.86,86.28.68s48.95,31.52,61.36,59.74a153.65,153.65,0,0,1,7.83,23.68c.81,3.14,2.15,4.46,5.41,4.44q29.5-.13,59,0c4,0,5.19-1.69,5.18-5.43q-.14-32.25,0-64.49c0-4-1.59-5.23-5.37-5.18-11,.15-22-.1-33,.12-4.41.09-5.82-1.59-5.76-5.86.18-13.5.22-27,0-40.49-.08-4.73,1.8-5.93,6.21-5.92q66.24.17,132.49,0c4.78,0,6.44,1.51,6.36,6.3q-.35,20,0,40c.07,4.61-1.62,6.1-6.15,6-11-.25-22,.05-33-.14-4.19-.07-6,1.15-5.95,5.65q.25,32,0,64c0,4.17,1.63,5.5,5.65,5.49q57-.13,114,0c3.81,0,5.36-1.31,5.35-5.23q-.11-72.49,0-145c0-3.71-1.51-5-5.09-4.93-11,.12-22,.06-33,0-6.14,0-6.68-.51-6.7-6.45,0-13.5.09-27-.08-40.5-.06-4.36,1.15-6.23,5.93-6.21q66,.22,132,0c4.4,0,6.28,1.18,6.19,5.92-.24,13.83-.21,27.66,0,41.49.06,4.35-1.48,5.88-5.81,5.8-10.83-.21-21.67.08-32.49-.13-4.29-.08-5.86,1.33-5.85,5.74q.17,71.74,0,143.49c0,4.7,1.74,6,6.17,6,17-.17,34-.06,51-.07,7.8,0,7.81,0,7.81-7.66q0-96,0-192c0-10.67,4.81-17.88,13.77-20A44.26,44.26,0,0,1,1044,0c24.26,1.34,48.38,3.58,72.16,9.06,42.64,9.83,82.8,26.07,121.47,46.21a564.11,564.11,0,0,1,58.12,35.07c10.1,6.91,12.36,15.11,8.29,27.42C1300.52,128.52,1297.48,139.4,1294.22,150.2Zm49.33,108.71c-9,0-18,.09-27,0-4-.06-4.69,1.78-3.28,5a64.41,64.41,0,0,0,4.45,8.93c16,24.76,42.76,33.71,69.69,25.37,28.32-8.78,45.51-37.48,40.47-67-4.92-28.88-27.46-49.72-58.47-50-24.52-.21-42.91,11.28-54.41,33.2-3,5.7-2.42,6.64,3.88,6.66q22.49.06,45,0a36.23,36.23,0,0,1,8.92.89c10.38,2.59,15.37,10.29,14.16,22-.86,8.28-9,15-18.42,15.05C1360.21,258.95,1351.88,258.9,1343.55,258.92ZM560.2,221v0c8,0,16,0,24,0,6.85,0,7.14-.4,4.23-6.61a59.8,59.8,0,0,0-65.3-33.07c-27.52,5.14-45.48,25.53-48.74,51.9-4,32.66,20.08,61.94,50.33,66.1,27.5,3.78,53-9.48,64.16-34.39,2.37-5.28,1.95-6-3.81-6q-25.48,0-51,0A17.71,17.71,0,0,1,520,252.55c-5.45-6.43-5.59-14-2.37-21.16,3.11-6.88,9.62-10,17.08-10.29C543.21,220.81,551.71,221,560.2,221ZM1064.9,79.42c0,13.31.1,26.63-.06,39.94-.05,4.12,1.47,5.71,5.56,5.51,4.65-.22,9.37.38,14-.14,12.35-1.4,23.2-5.23,29-17.8,3.72-8.06,2.84-16.35,2.26-24.53-1.13-15.82-7.9-28.67-22-36.91-7.25-4.23-15.16-6.66-23.17-9-4.22-1.24-5.67-.59-5.6,4C1065,53.46,1064.9,66.44,1064.9,79.42ZM1145,86.37c0,11,.15,22-.07,32.94-.09,4.4,1.6,5.84,5.86,5.75,10.35-.23,10.53.76,10.19-9.37-.07-2,0-4.31,2.7-4.55s5.8-1,7.33,2.49c1.07,2.44,2.2,4.85,3.23,7.3s2.82,4,5.73,3.89c3.16-.1,6.32,0,9.48-.06,2.68-.06,3.8-1.13,2.15-3.75-1.85-3-3.67-5.94-5.53-8.89-1.57-2.49-2.36-4.54,1-6.53,2.79-1.63,4.16-4.74,5.14-7.77,3.71-11.48-1.47-27.2-11-34.77s-20.55-10.63-31.66-14c-3.61-1.11-4.73.36-4.69,3.91C1145.07,64.07,1145,75.22,1145,86.37Zm71.89,33.12c0,4.38,3.54,8.09,7.62,8.09,3.92,0,8.22-4.44,8.2-8.47a8.43,8.43,0,0,0-8-7.89C1220,111.16,1216.83,114.56,1216.88,119.49Z"/><path class="cls-1" d="M204.89,240.38q0-52.25,0-104.49c0-6.8.11-6.91,7.07-6.91,18.83,0,37.69-.64,56.49.15,24.4,1,47.58,6.85,66.47,23.55,13.59,12,21.52,27.64,24.52,45.31s2.64,35.45-3.11,52.81A84.71,84.71,0,0,1,337,283.11c-2.52,2.64-2.79,4.65-1.12,7.84,9.7,18.6,19.1,37.35,28.83,55.94,2.1,4,1,5-3,5-18,0-36-.14-54,.07-4.68.05-6-3.08-7.3-6.23-4.47-10.58-8.92-21.17-13-31.89-1.67-4.34-3.41-7.08-8.89-6.14-4.37.75-9,.3-13.47.13-3.93-.15-5.29,1.58-5.25,5.38.13,10.66.07,21.33,0,32,0,6.15-.5,6.65-6.49,6.67-14.17,0-28.33-.11-42.49.09-4.53.06-6.09-1.47-6.07-6.07C205,310.71,204.89,275.55,204.89,240.38Zm55-21.45q0,11,0,22c0,13.81,0,13.95,13.54,12.93,15.22-1.14,26.76-7.84,31.85-22.95,4.48-13.31,1.55-31.95-10.86-40.76-8.69-6.17-18.59-7.57-29-7.24-4.05.13-5.66,1.4-5.58,5.54C260,198.6,259.88,208.77,259.87,218.93Z"/><path class="cls-1" d="M1664.88,240.42q0-51.72,0-103.44c0-7,.09-7.06,6.88-7.07,18.66,0,37.34-.62,56,.16,21.84.91,42.9,5.27,61,18.82s27.91,32.05,31.07,54.28c2.95,20.77.72,40.83-8.37,59.87A67.75,67.75,0,0,1,1796,284.3c-2.56,2.32-2.42,4.09-1,6.82,9.7,18.38,19.25,36.84,28.9,55.26,2.52,4.81,2.11,5.65-3.48,5.66-17.66,0-35.31-.06-53,.08-3.53,0-5.45-1.2-6.75-4.48-4.54-11.44-9.38-22.77-14-34.2-1.47-3.67-3.54-5.7-7.79-5.46-5,.28-10,.2-15,0-3.67-.13-5,1.37-5,5,.12,11-.11,22,.11,33,.09,4.47-1.34,6.23-6,6.15-13.82-.22-27.65-.06-41.47-.08-6.6,0-6.77-.17-6.78-6.69Q1664.87,292.89,1664.88,240.42Zm54.18-21c0,7.82-.1,15.65,0,23.47.2,12.91-2.4,12.14,12.37,12,18.2-.22,33.56-12.47,35.19-30.66,1.38-15.36-3.7-30.4-19.14-37.1-7.32-3.18-15.18-3.2-23-3.23-4.17,0-5.54,1.55-5.47,5.6C1719.2,199.47,1719.07,209.46,1719.07,219.45Z"/><path class="cls-1" d="M44,266.5q0-38.73,0-77.46c0-7.08-.12-7.17-7.35-7.18-9.83,0-19.66,0-29.48,0-6.78,0-7.16-.37-7.17-7q0-19.24,0-38.48c0-7.56,0-7.58,7.43-7.58H128.38c15.6,0,15.6,0,15.6,15.39,0,10.66-.16,21.33.07,32,.09,4.43-1.64,5.82-5.88,5.74-10.49-.19-21-.08-31.48-.05-6.5,0-6.72.22-6.72,6.77q0,77.46,0,154.92c0,8.31,0,8.32-8.17,8.32q-20.49,0-41,0c-6.3,0-6.75-.47-6.76-6.9Q44,305.73,44,266.5Z"/><path class="cls-1" d="M1591,240.91q0,52.21,0,104.43c0,6.53-.17,6.69-6.76,6.7-14,0-28-.13-42,.08-4.6.07-6.48-1.2-6.48-6.16q.19-104.93,0-209.86c0-4.83,1.61-6.36,6.35-6.28q21.48.35,43,0c4.67-.07,6,1.7,6,6.15C1591,171,1591,205.94,1591,240.91Z"/><path class="cls-1" d="M1079.94,82.08c0-6.31,0-12.62,0-18.93,0-3.87,1.77-4.54,5.08-3.34,10.6,3.86,14.88,12.23,15.79,22.67.5,5.73.86,11.57-2.44,16.94-3.14,5.1-10.28,8.12-16,6.41-2.36-.71-2.42-2.48-2.43-4.31C1079.92,95,1079.94,88.56,1079.94,82.08Z"/><path class="cls-1" d="M1160,82.65c0-3.32,0-6.64,0-10,0-2.63,1.11-3.44,3.76-2.9,9.34,1.88,15.08,9.37,14.13,18.67a10.55,10.55,0,0,1-16,8,4,4,0,0,1-1.85-3.81c0-3.32,0-6.64,0-10Z"/></g></g></svg>